<svg width="154" height="26" viewBox="0 0 154 26" fill="none" xmlns="http://www.w3.org/2000/svg">
<path d="M4.27805 17C6.93714 17 8.54794 15.3551 8.54794 12.6278C8.54794 9.90909 6.93714 8.27273 4.30362 8.27273H1.1843V17H4.27805ZM3.02947 15.419V9.85369H4.20561C5.84197 9.85369 6.70703 10.6889 6.70703 12.6278C6.70703 14.5753 5.84197 15.419 4.20135 15.419H3.02947ZM10.9268 17L11.5746 15.0099H14.7237L15.3714 17H17.3487L14.3402 8.27273H11.9624L8.94957 17H10.9268ZM12.0433 13.5696L13.1172 10.267H13.1854L14.2592 13.5696H12.0433ZM18.3991 17H20.2443V13.9062H21.5909L23.2443 17H25.2812L23.4276 13.608C24.4205 13.1818 24.9702 12.3168 24.9702 11.1236C24.9702 9.3892 23.8239 8.27273 21.8423 8.27273H18.3991V17ZM20.2443 12.4233V9.78125H21.4886C22.554 9.78125 23.0696 10.2543 23.0696 11.1236C23.0696 11.9886 22.554 12.4233 21.4972 12.4233H20.2443ZM26.2741 17H28.1193V14.5199L29.027 13.4119L31.4176 17H33.625L30.348 12.1804L33.5866 8.27273H31.375L28.2344 12.1207H28.1193V8.27273H26.2741V17ZM37.3249 8.27273V17H39.1147V11.2983H39.1871L41.4457 16.9574H42.6644L44.9229 11.3196H44.9954V17H46.7852V8.27273H44.5096L42.1062 14.1364H42.0039L39.6005 8.27273H37.3249ZM56.3253 12.6364C56.3253 9.78125 54.5526 8.15341 52.2386 8.15341C49.9119 8.15341 48.152 9.78125 48.152 12.6364C48.152 15.4787 49.9119 17.1193 52.2386 17.1193C54.5526 17.1193 56.3253 15.4915 56.3253 12.6364ZM54.4545 12.6364C54.4545 14.4858 53.5767 15.4872 52.2386 15.4872C50.8963 15.4872 50.0227 14.4858 50.0227 12.6364C50.0227 10.7869 50.8963 9.78551 52.2386 9.78551C53.5767 9.78551 54.4545 10.7869 54.4545 12.6364ZM60.7859 17C63.445 17 65.0558 15.3551 65.0558 12.6278C65.0558 9.90909 63.445 8.27273 60.8114 8.27273H57.6921V17H60.7859ZM59.5373 15.419V9.85369H60.7134C62.3498 9.85369 63.2148 10.6889 63.2148 12.6278C63.2148 14.5753 62.3498 15.419 60.7092 15.419H59.5373ZM66.4226 17H72.3203V15.4787H68.2678V13.3949H72.0007V11.8736H68.2678V9.79403H72.3033V8.27273H66.4226V17ZM84.5675 12.6364C84.5675 9.78125 82.7947 8.15341 80.4808 8.15341C78.1541 8.15341 76.3942 9.78125 76.3942 12.6364C76.3942 15.4787 78.1541 17.1193 80.4808 17.1193C82.7947 17.1193 84.5675 15.4915 84.5675 12.6364ZM82.6967 12.6364C82.6967 14.4858 81.8189 15.4872 80.4808 15.4872C79.1385 15.4872 78.2649 14.4858 78.2649 12.6364C78.2649 10.7869 79.1385 9.78551 80.4808 9.78551C81.8189 9.78551 82.6967 10.7869 82.6967 12.6364ZM93.234 8.27273H91.3974V13.7614H91.3207L87.5536 8.27273H85.9343V17H87.7795V11.5071H87.8434L91.6403 17H93.234V8.27273Z" fill="white"/>
<g clip-path="url(#clip0_25_21)">
<path d="M119.176 0.5H140.824C147.831 0.5 153.5 6.10278 153.5 13C153.5 19.8972 147.831 25.5 140.824 25.5H119.176C112.169 25.5 106.5 19.8972 106.5 13C106.5 6.10278 112.169 0.5 119.176 0.5Z" fill="white" stroke="white"/>
<g filter="url(#filter0_dd_25_21)">
<path d="M140.824 0.464233H119.177C112.159 0.464233 106.471 6.07666 106.471 12.9999C106.471 19.9232 112.159 25.5357 119.177 25.5357H140.824C147.841 25.5357 153.53 19.9232 153.53 12.9999C153.53 6.07666 147.841 0.464233 140.824 0.464233Z" fill="#363636" fill-opacity="0.72"/>
</g>
<path d="M141 23C146.523 23 151 18.5228 151 13C151 7.47715 146.523 3 141 3C135.477 3 131 7.47715 131 13C131 18.5228 135.477 23 141 23Z" fill="white"/>
<g clip-path="url(#clip1_25_21)">
<path d="M141 8.7179C138.635 8.7179 136.718 10.6351 136.718 13C136.718 15.365 138.635 17.2821 141 17.2821C143.365 17.2821 145.282 15.365 145.282 13C145.282 10.6351 143.365 8.7179 141 8.7179ZM141 16.5V9.50002C142.662 9.4956 144.095 10.6667 144.422 12.2961C144.526 12.7596 144.526 13.2404 144.422 13.7039C144.095 15.3334 142.662 16.5045 141 16.5Z" fill="#252525"/>
<path d="M144.442 9.55866C144.514 9.63235 144.612 9.67449 144.715 9.67599C144.819 9.67453 144.917 9.63235 144.989 9.55866L145.947 8.60056C146.12 8.47095 146.155 8.22585 146.025 8.05306C145.896 7.88026 145.651 7.84527 145.478 7.97484C145.448 7.99707 145.422 8.02341 145.4 8.05306L144.442 9.01116C144.29 9.14986 144.28 9.38489 144.419 9.53605C144.426 9.54391 144.434 9.55144 144.442 9.55866Z" fill="#252525"/>
<path d="M137.48 16.4415C137.341 16.3372 137.15 16.3372 137.011 16.4415L136.053 17.3996C135.902 17.5383 135.892 17.7733 136.03 17.9245C136.038 17.9323 136.045 17.9399 136.053 17.9471C136.192 18.0983 136.427 18.1084 136.578 17.9696C136.586 17.9624 136.593 17.9549 136.6 17.9471L137.559 16.9889C137.688 16.8162 137.653 16.5711 137.48 16.4415Z" fill="#252525"/>
<path d="M145.947 17.3995L144.989 16.4414C144.816 16.3118 144.571 16.3468 144.441 16.5196C144.337 16.6587 144.337 16.8499 144.441 16.9889L145.4 17.947C145.538 18.0982 145.773 18.1083 145.924 17.9696C145.932 17.9624 145.94 17.9548 145.947 17.947C146.098 17.8083 146.108 17.5733 145.97 17.4221C145.962 17.4142 145.955 17.4067 145.947 17.3995Z" fill="#252525"/>
<path d="M137.011 9.55866C137.15 9.70986 137.385 9.71997 137.536 9.58123C137.544 9.57404 137.551 9.56648 137.558 9.55866C137.71 9.41996 137.72 9.18493 137.581 9.03377C137.574 9.02591 137.566 9.01838 137.558 9.0112L136.6 8.0531C136.428 7.92349 136.182 7.95852 136.053 8.13132C135.949 8.27035 135.949 8.46156 136.053 8.6006L137.011 9.55866Z" fill="#252525"/>
<path d="M141 8.13129C141.216 8.13129 141.391 7.95621 141.391 7.74023V6.39106C141.391 6.17508 141.216 6 141 6C140.784 6 140.609 6.17508 140.609 6.39106V7.74023C140.609 7.95621 140.784 8.13129 141 8.13129Z" fill="#252525"/>
<path d="M141 17.8688C140.784 17.8688 140.609 18.0439 140.609 18.2598V19.609C140.609 19.825 140.784 20.0001 141 20.0001C141.216 20.0001 141.391 19.825 141.391 19.609V18.2598C141.391 18.0439 141.216 17.8688 141 17.8688Z" fill="#252525"/>
<path d="M147.609 12.609H146.26C146.044 12.609 145.869 12.7841 145.869 13.0001C145.869 13.2161 146.044 13.3911 146.26 13.3911H147.609C147.825 13.3911 148 13.2161 148 13.0001C148 12.7841 147.825 12.609 147.609 12.609Z" fill="#252525"/>
<path d="M136.131 13.0001C136.131 12.7841 135.956 12.609 135.74 12.609H134.391C134.175 12.609 134 12.7841 134 13.0001C134 13.2161 134.175 13.3911 134.391 13.3911H135.74C135.956 13.3911 136.131 13.2161 136.131 13.0001Z" fill="#252525"/>
</g>
</g>
<defs>
<filter id="filter0_dd_25_21" x="48.4707" y="-51.5358" width="163.059" height="151.071" filterUnits="userSpaceOnUse" color-interpolation-filters="sRGB">
<feFlood flood-opacity="0" result="BackgroundImageFix"/>
<feColorMatrix in="SourceAlpha" type="matrix" values="0 0 0 0 0 0 0 0 0 0 0 0 0 0 0 0 0 0 127 0" result="hardAlpha"/>
<feOffset dy="16"/>
<feGaussianBlur stdDeviation="29"/>
<feColorMatrix type="matrix" values="0 0 0 0 0.0341667 0 0 0 0 0.0408 0 0 0 0 0.2 0 0 0 0.03 0"/>
<feBlend mode="normal" in2="BackgroundImageFix" result="effect1_dropShadow_25_21"/>
<feColorMatrix in="SourceAlpha" type="matrix" values="0 0 0 0 0 0 0 0 0 0 0 0 0 0 0 0 0 0 127 0" result="hardAlpha"/>
<feOffset dy="-2"/>
<feGaussianBlur stdDeviation="25"/>
<feColorMatrix type="matrix" values="0 0 0 0 0.0352941 0 0 0 0 0.0392157 0 0 0 0 0.2 0 0 0 0.02 0"/>
<feBlend mode="normal" in2="effect1_dropShadow_25_21" result="effect2_dropShadow_25_21"/>
<feBlend mode="normal" in="SourceGraphic" in2="effect2_dropShadow_25_21" result="shape"/>
</filter>
<clipPath id="clip0_25_21">
<rect width="48" height="26" fill="white" transform="translate(106)"/>
</clipPath>
<clipPath id="clip1_25_21">
<rect width="14" height="14" fill="white" transform="translate(134 6)"/>
</clipPath>
</defs>
</svg>
